<svg width="34" height="34" viewBox="0 0 34 34" xmlns="http://www.w3.org/2000/svg"><path fill="#E72E2E" d="M16.978 6.17c-5.95 0-10.792 4.842-10.792 10.793 0 5.95 4.841 10.792 10.792 10.792 5.95 0 10.792-4.841 10.792-10.792S22.93 6.171 16.978 6.171zm3.794 15.102a7.89 7.89 0 0 0-1.886-.69 4.096 4.096 0 0 0 2.185-3.619 4.097 4.097 0 0 0-4.093-4.093 4.098 4.098 0 0 0-4.093 4.093c0 1.568.887 2.932 2.185 3.619a7.892 7.892 0 0 0-1.887.69 5.732 5.732 0 0 1-1.95-4.31 5.752 5.752 0 0 1 5.745-5.745 5.752 5.752 0 0 1 5.745 5.746 5.731 5.731 0 0 1-1.95 4.309zm2.67 2.514a5.904 5.904 0 0 0-1.182-1.482 7.492 7.492 0 0 0 2.234-5.341c0-4.145-3.372-7.517-7.516-7.517s-7.516 3.372-7.516 7.517c0 2.087.855 3.978 2.234 5.341-.48.439-.879.938-1.181 1.482a9.378 9.378 0 0 1-2.942-6.823c0-5.186 4.219-9.405 9.405-9.405 5.186 0 9.405 4.219 9.405 9.405a9.375 9.375 0 0 1-2.942 6.823z"/><path fill="#E72E2E" d="M16.978 0C7.601 0 0 7.601 0 16.978c0 9.377 7.601 16.978 16.978 16.978 9.377 0 16.978-7.601 16.978-16.978C33.956 7.601 26.355 0 16.978 0zm0 29.762c-7.057 0-12.8-5.742-12.8-12.799 0-7.058 5.743-12.8 12.8-12.8s12.8 5.742 12.8 12.8c0 7.057-5.743 12.799-12.8 12.799z"/></svg>