<svg width="32" height="32" viewBox="0 0 34 34" xmlns="http://www.w3.org/2000/svg"><circle fill="#131722" cx="17" cy="17" r="17"/><path d="M17 5L6 11.233V23.7l11 6.233L28 23.7V11.233L17 5zm.225 20.192l-8.443-4.726.034-2.299 8.404 4.722 4.053-2.294-2.718-1.54-1.017.576-1.907-1.075 1.022-.58-1.335-.759-.806.46-1.912-1.074.812-.46L9.104 13.7l8.116-4.597 7.656 4.285-2.053 1.17-5.603-3.152-4.053 2.294 2.269 1.286 1.158-.662 1.912 1.074-1.169.663 1.335.758.948-.542 1.912 1.075-.958.547 4.752 2.692-8.101 4.601z" fill="#FFF"/></svg>