<svg width="34" height="34" viewBox="0 0 34 34" xmlns="http://www.w3.org/2000/svg"><defs><linearGradient x1="-2.03%" y1="76.563%" x2="81.252%" y2="6.707%" id="a"><stop stop-color="#4CA1CC" offset="0%"/><stop stop-color="#64B9E4" offset="100%"/></linearGradient><linearGradient x1="8.284%" y1="97.658%" x2="83.157%" y2="12.298%" id="b"><stop stop-color="#58ADD8" offset="0%"/><stop stop-color="#469FD5" offset="100%"/></linearGradient></defs><path d="M19.171.173c1.39.08 2.736.486 4.04.951 2.14.826 4.117 2.092 5.73 3.73 1.16 1.138 2.165 2.474 2.844 3.956-.991-.285-1.953-.71-2.98-.852-1.367-.214-2.762-.097-4.114.162-5.245 1.02-10.11 3.555-14.238 6.91-.612.457-1.137 1.022-1.774 1.44-.262.193-.565-.057-.838-.103-.85-.321-1.821.356-1.97 1.218-.118.485.21.928.213 1.405-.085.276-.277.496-.453.717-1.149 1.376-2.253 2.832-2.91 4.515a5.902 5.902 0 0 1-.488.951C1.178 23.17.44 20.983.145 18.735c-.386-2.942.11-5.983 1.378-8.664C2.545 7.897 3.934 5.863 5.7 4.226 8.27 1.82 11.703.38 15.213.16 17.5 0 18.758.141 19.17.173z" fill="url(#a)"/><path d="M17.316 12.283c1.849-.516 3.842-.91 5.731-.36.9.264 1.708.923 1.999 1.835.382 1.172.049 2.43-.398 3.535-.554 1.32-1.427 2.47-2.359 3.543-2.683 3.127-6.21 5.505-10.097 6.866-1.15.39-2.311.774-3.525.9-.674.078-1.358.208-2.035.076-1.08-.14-2.227-.516-2.876-1.444-.697-.966-.625-2.267-.27-3.35.481-1.517 1.522-2.752 2.391-4.055.163-.224.321-.496.607-.571.381.04.748.234 1.137.18.735-.066 1.35-.724 1.388-1.457.032-.354-.113-.685-.225-1.012 2.516-2.067 5.391-3.766 8.532-4.686" fill="url(#b)"/><path d="M33.252 14.764c.108-.213.233-.416.375-.608.46 1.35.38 2.808.274 4.208-.436 3.64-1.912 7.213-4.435 9.906a16.926 16.926 0 0 1-8.889 4.958c-3.232.674-6.671.424-9.733-.843 5.245-1.128 10.058-3.763 14.228-7.086 2.109-1.674 4.072-3.564 5.614-5.782 1.05-1.472 1.804-3.123 2.566-4.753" fill="url(#a)"/></svg>