<svg width="34" height="34" viewBox="0 0 34 34" xmlns="http://www.w3.org/2000/svg"><path d="M8.735 13.776v6.79h14.177l-14.177-6.79zm8.246-6.048l-6.653 4.315h13.278L16.98 7.728zm0 18.491l6.625-4.314H10.328l6.653 4.314zm8.21-6.047v-6.79H11.014l14.177 6.79z" fill="#787476"/><path d="M16.983 0C7.603 0 0 7.603 0 16.983s7.604 16.984 16.984 16.984c9.379 0 16.983-7.604 16.983-16.984C33.967 7.603 26.363 0 16.983 0zm9.548 21.235a.67.67 0 0 1-.304.56v.001l-9.245 6.02-9.281-6.02-.002-.001a.68.68 0 0 1-.1-.08l-.005-.005a.666.666 0 0 1-.198-.454v-.014-8.53c0-.235.121-.441.305-.56v-.001l9.28-6.02 9.245 6.02.002.002a.658.658 0 0 1 .187.183l.002.003a.668.668 0 0 1 .113.354v8.542z" fill="#3A3D3E"/></svg>