<svg width="32" height="32" viewBox="0 0 34 34" xmlns="http://www.w3.org/2000/svg"><circle fill="#3890CD" cx="17" cy="17" r="17"/><g fill="#FFF"><path d="M17.224 5.584c1.383-.324 2.873.904 2.76 2.333.052 1.312-1.237 2.44-2.527 2.274a2.29 2.29 0 0 1-1.603-.862 2.338 2.338 0 0 1-.325-2.375c.283-.709.956-1.222 1.695-1.37zM8.154 7.975c.776-.17 1.625-.141 2.35.21.943.414 1.655 1.276 1.937 2.26.31.81.677 1.623 1.262 2.273.457.5 1.172.564 1.807.601.418.032.822-.088 1.208-.235.87-.274 1.859.527 1.758 1.438.007.76-.718 1.402-1.465 1.342-.507 0-.963-.33-1.203-.765-.446-.672-1.03-1.4-1.885-1.504-.777-.17-1.587.032-2.29.372-.457.213-.857.533-1.331.71-1.125.432-2.478.25-3.423-.51a3.511 3.511 0 0 1-1.313-2.214c-.157-.83.05-1.701.48-2.42a3.636 3.636 0 0 1 2.108-1.558zM22.93 12.173a4.75 4.75 0 0 1 5.53 3.837c.128.93.06 1.902-.337 2.763a4.754 4.754 0 0 1-7.007 2.019c-1.423-.949-2.266-2.714-2.054-4.417.152-2.057 1.835-3.861 3.868-4.202zM16.69 17.655c.318-.044.664-.052.957.099.527.263.841.82.794 1.408-.06.775-.836 1.4-1.607 1.27-.775-.177-1.63-.362-2.386-.013-1.01.532-1.62 1.589-1.877 2.672-.228 1.14-1.04 2.143-2.13 2.567-.588.266-1.251.29-1.883.218a3.528 3.528 0 0 1-2.73-2.206c-.66-1.593.086-3.584 1.615-4.37a3.515 3.515 0 0 1 3.187-.076c.865.437 1.788.806 2.758.902.698.048 1.255-.456 1.761-.866.464-.362.548-1.012 1.02-1.36.152-.122.33-.206.52-.245zM17.463 23.595c1.289-.162 2.572.965 2.522 2.275.076 1.103-.8 2.144-1.875 2.332-.932.193-1.967-.259-2.44-1.089a2.348 2.348 0 0 1-.144-2.104 2.32 2.32 0 0 1 1.937-1.414z"/></g></svg>