<svg width="32" height="32" viewBox="0 0 34 34" xmlns="http://www.w3.org/2000/svg"><circle fill="#4C525E" cx="17" cy="17" r="17"/><path d="M26.66 7.423l-4.37-2.065h-10.4l-4.626 2.18-4.435 5.718 14.146 15.79 14.092-15.752-4.408-5.871zm3.866 5.784l-6.576 3.151-1.857-6.401 4.463-2.043 3.97 5.293zM11.978 5.735h10.23l4.03 1.906-4.33 1.977h-9.8l-4.32-1.917 4.19-1.966zm-4.56 2.223l4.429 1.966-1.885 6.505-6.548-3.31 4.003-5.161zm-3.671 5.751l6.177 3.119 6.03 10.509L3.747 13.709zm13.201 14.589L10.28 16.69l1.945-6.69h9.487l1.928 6.647-6.69 11.65zm.88-.77l6.193-10.782 6.041-2.895-12.235 13.677z" fill="#FFF"/><path d="M20.263 15.184c-.114-1.13-1.097-1.502-2.332-1.606l-.005-1.567-.956.005.005 1.53c-.25 0-.508.005-.759.016l-.01-1.54-.957.005.011 1.568-1.928.016.006 1.021s.71-.022.699-.005c.382 0 .513.218.552.415l.021 4.298a.331.331 0 0 1-.333.317h-.022c.011.011-.693 0-.693 0l-.186 1.147 1.928-.005.011 1.584h.95l-.005-1.573c.262 0 .513.005.76 0l.01 1.562.956-.006-.011-1.584c1.606-.103 2.73-.513 2.862-2.02.104-1.213-.47-1.754-1.382-1.967.552-.29.896-.786.808-1.617v.006zm-1.316 3.397c.006 1.185-2.026 1.065-2.676 1.07l-.011-2.102c.65 0 2.676-.202 2.687 1.032zm-.464-2.966c.005 1.082-1.688.967-2.229.967l-.01-1.906c.54 0 2.233-.186 2.239.94z" fill="#FDC337"/></svg>