<svg width="34" height="34" viewBox="0 0 34 34" xmlns="http://www.w3.org/2000/svg"><path fill="#53B987" d="M17 0C7.611 0 0 7.611 0 17s7.611 17 17 17 17-7.611 17-17S26.389 0 17 0zm-5.239 22.167H9.945V20.15h1.816c1.664 0 2.588-.47 3.611-2.185l.02.043c.333.708.682 1.354 1.065 1.93-1.062 1.355-2.454 2.23-4.696 2.23zm15.2 0h-4.862c-2.85 0-4.455-1.46-5.895-4.531-1.425-3.04-2.347-3.786-4.443-3.786h-2.71v8.317H7.04V11.833h4.721c3.52 0 4.946 2.155 6.287 4.946 1.34 2.79 2.235 3.426 4.051 3.426h4.861v1.962zm0-8.373h-4.862c-1.521 0-2.395.446-3.427 2.23a16.83 16.83 0 0 0-1.123-1.96c1.15-1.506 2.54-2.231 4.55-2.231h4.861v1.961z"/></svg>