<svg xmlns="http://www.w3.org/2000/svg" width="32" height="32" viewBox="0 0 32 32"><circle cx="16" cy="16" r="16" fill="#0096DC"/><g fill="#FFF"><path d="M22.52 11.618l-4.96-4.974a2.205 2.205 0 0 0-3.116 0l-4.95 4.964a.739.739 0 0 0 0 1.04l1.502 1.506 1 .928a.766.766 0 0 0 1.046 0l1.999-1.855c.55-.51 1.393-.51 1.943 0l1.999 1.855a.766.766 0 0 0 1.046 0l1-.928 1.49-1.495a.74.74 0 0 0 0-1.041z"/><path d="M6.671 17.562l7.773 7.794c.857.859 2.259.859 3.115 0l7.773-7.794c1.348-1.351.398-1.752-.59-2.69l-1.22-1.159a.763.763 0 0 0-1.046 0l-1.999 1.855c-.549.51-1.393.51-1.943 0l-1.999-1.855a.767.767 0 0 0-1.046 0l-1.999 1.855c-.55.51-1.393.51-1.943 0l-1.999-1.855a.767.767 0 0 0-1.046 0l-1.12 1.039c-1.033.958-2.118 1.398-.71 2.81z" opacity=".7"/></g></svg>