<svg width="34" height="34" viewBox="0 0 34 34" xmlns="http://www.w3.org/2000/svg"><path fill="#1592E6" d="M18.485 4.753v.405a.614.614 0 1 1-.224 0v-.434a12.31 12.31 0 0 0-1.024-.059v1.382c.466.086.82.494.82.984a1.004 1.004 0 0 1-2.006 0c0-.49.354-.898.82-.984V4.662c-.349.003-.694.02-1.035.052v.444a.614.614 0 1 1-.224 0v-.421C9.452 5.418 4.66 10.64 4.66 16.983c0 6.807 5.518 12.325 12.325 12.325 6.807 0 12.324-5.518 12.324-12.325 0-6.299-4.725-11.49-10.823-12.23zm-4.086.982l2.625 3.91 2.613-3.895c.806.19 1.59.465 2.336.822l-3.811 5.68v2.068a2.9 2.9 0 0 0-2.251.01v-2.04l-3.856-5.745c.75-.354 1.536-.626 2.344-.81zM5.64 19.117h2.217s.435 1.682 1.064 2.65c.63.966 1.661 2.008 1.661 2.008l2.183-2.639V18.14H5.498a11.65 11.65 0 0 1-.058-1.156c0-4.28 2.331-8.012 5.79-10.006l3.88 5.592v1.987h-2.378V12.96l-1.954-2.736s-1.629 1.173-2.231 2.59c-.603 1.416-.782 3.176-.782 3.176h6.557a2.899 2.899 0 0 0 .788 3.198v2.486L10.96 26.83a11.55 11.55 0 0 1-5.319-7.713zm7.729 8.454h-.98c-.191-.083-.38-.17-.565-.263l.374-.456h1.17v.72zm0-1.031h-.914l.799-.973s.042.02.115.05v.923zm1.729 1.828a11.334 11.334 0 0 1-1.417-.325v-.16h1.417v.485zm0-.797H13.68v-.719h1.417v.72zm0-1.031H13.68v-.795c.462.179.936.328 1.417.447v.348zm1.73 1.981a11.526 11.526 0 0 1-1.417-.106v-.532h1.416v.638zm0-.95H15.41v-.719h1.416v.72zm0-1.031H15.41v-.275c.446.096.929.167 1.416.184v.09zm-2.966-1.69l2.041-2.618V18.57a1.93 1.93 0 0 1-.793-1.557 1.938 1.938 0 0 1 3.877 0c0 .656-.328 1.233-.825 1.583v3.495l2.084 2.802s-1.607.673-3.197.673c-1.591 0-3.187-.716-3.187-.716zm4.694 3.565c-.47.064-.942.1-1.416.106v-.638h1.416v.532zm0-.844H17.14v-.719h1.416v.72zm0-1.031H17.14v-.087c.49-.007.97-.07 1.416-.163v.25zm1.73 1.504c-.465.138-.938.246-1.417.324v-.485h1.417v.161zm0-.473h-1.417v-.719h1.417v.72zm0-1.031h-1.417v-.32c.482-.117.956-.267 1.417-.45v.77zm1.292 1.031h-.98v-.719h1.16l.365.466c-.18.09-.361.174-.545.253zm-.98-1.031v-.9l.159-.073.758.973h-.917zm2.917-2.765s1.032-1.042 1.661-2.009c.63-.967 1.064-2.65 1.064-2.65h2.086a11.55 11.55 0 0 1-5.233 7.66l-4.106-5.102v-2.486a2.907 2.907 0 0 0 .788-3.198h6.557s-.179-1.76-.782-3.176c-.602-1.417-2.23-2.59-2.23-2.59l-1.955 2.736v1.597h-2.378v-1.988l3.842-5.538a11.535 11.535 0 0 1 5.639 11.108h-7.136v2.997l2.183 2.639z"/><path fill="#1592E6" d="M16.364 7.031a.691.691 0 1 0 1.382 0 .691.691 0 0 0-1.382 0zm-1.062-1.27a.423.423 0 1 0 .846-.001.423.423 0 0 0-.846 0z"/><path fill="#1592E6" d="M16.983 0C7.603 0 0 7.604 0 16.983c0 9.38 7.604 16.984 16.983 16.984 9.38 0 16.984-7.604 16.984-16.984C33.967 7.603 26.363 0 16.983 0zm0 30.192c-7.295 0-13.209-5.914-13.209-13.209S9.688 3.774 16.984 3.774c7.295 0 13.209 5.914 13.209 13.21 0 7.294-5.914 13.208-13.21 13.208z"/><path fill="#1592E6" d="M17.95 5.76a.423.423 0 1 0 .847 0 .423.423 0 0 0-.846 0z"/></svg>