<svg width="34" height="3x" viewBox="0 0 34 34" xmlns="http://www.w3.org/2000/svg"><path fill="#FFD041" d="M16.982 0C7.603 0 0 7.603 0 16.982c0 9.378 7.603 16.981 16.982 16.981 9.378 0 16.981-7.603 16.981-16.981C33.963 7.603 26.36 0 16.982 0zm7.94 16.947c0 4.402-3.4 5.898-6.262 5.898v1.148h2.208v1.554H18.66v1.788h-3.453v-1.788h-2.111v-1.554h2.106V22.83c-.915 0-6.16-.218-6.16-6.204V9.422h3.429v7.481c0 3.124 2.746 3.095 2.746 3.095V9.422h3.443v10.576s2.833.16 2.833-3.138V9.422h3.428v7.525z"/></svg>