<svg width="34" height="34" viewBox="0 0 34 34" xmlns="http://www.w3.org/2000/svg"><path fill="#4C9BCF" d="M21.81 17.081l.44-.573c.134-.181.867-1.487.867-2.875 0-.54-.321-1.5-1.025-2.333-.426-.503-1.334-1.349-2.639-1.349h-5.082v1.688h4.775c.976 0 1.862.67 2.156 1.629a2.342 2.342 0 0 1-.565 2.35c-.196.195-.97.873-1.59 1.412.656.624 1.544 1.468 1.763 1.687.722.722.584 2.012.171 2.581-.334.462-.927 1.075-2.224 1.075H12.42v-8.049h1.841v6.207h4.595c.468 0 .593-.124.706-.275a.659.659 0 0 0 .008-.274 332.632 332.632 0 0 0-2.429-2.314l-.74-.7.772-.666c.769-.663 2.063-1.788 2.261-1.987a.518.518 0 0 0 .107-.508c-.066-.215-.25-.327-.396-.327h-8.304v10.568h7.92c1.906 0 3.26-.742 4.025-2.205 1.062-2.03-.505-4.178-.522-4.199l-.456-.563z"/><path fill="#4C9BCF" d="M17 0C7.61 0 0 7.61 0 17c0 9.387 7.61 16.998 17 16.998 9.387 0 16.998-7.61 16.998-16.999C33.998 7.611 26.388 0 17 0zm7.418 22.697c-.663 1.267-1.65 2.173-2.931 2.695-.809.33-1.726.497-2.724.497H9v-14.25h3.529v-3.53h6.923c1.518 0 2.955.712 4.046 2.003.9 1.065 1.459 2.415 1.459 3.521 0 1.413-.509 2.683-.892 3.411.28.483.503.996.665 1.53.44 1.463.333 2.89-.313 4.123z"/></svg>