<svg xmlns="http://www.w3.org/2000/svg" width="32" height="32" viewBox="0 0 32 32"><circle cx="16" cy="16" r="16" fill="#404040"/><path fill="#FFF" d="M15.934 5.07a.091.091 0 0 1 .093-.07c.519 1.033 1.032 2.069 1.545 3.105.295.047.578.14.858.235.246.109.505.25.627.495a.482.482 0 0 1-.018.491c-.15.213-.389.352-.63.453.3.622.62 1.234.925 1.854.428.134.864.302 1.193.607.194.183.326.446.293.713-.042.283-.273.493-.506.647.485.986.967 1.972 1.454 2.953.093.065.21.095.311.15.267.14.54.282.773.472.282.216.528.483.666.808.16.34.16.743.013 1.085-.065.166-.174.31-.288.449.42.842.842 1.685 1.257 2.53-.213.118-.42.245-.63.369-.21.111-.404.25-.612.364-2.368 1.405-4.74 2.807-7.112 4.212a1.199 1.199 0 0 1-.298-.003c-2.496-1.4-4.989-2.792-7.482-4.192a1.577 1.577 0 0 1-.068-.037c-.264-.151-.534-.297-.798-.451.332-.671.65-1.348.977-2.022.104-.233.23-.456.33-.691-.078-.102-.172-.19-.24-.297a1.39 1.39 0 0 1-.188-1.068c.08-.38.34-.699.627-.957.389-.337.855-.577 1.332-.778-.09.179-.176.357-.267.533-.05.09-.057.198-.13.275a3.102 3.102 0 0 0-.425.268 1.88 1.88 0 0 0-.554.738c-.093.25-.02.533.142.74l.063-.128c.254-.513.502-1.026.751-1.539.065-.148.166-.28.223-.43.044-.053.039-.122.073-.18.07-.133.14-.267.202-.403l.99-2.03c.106-.237.238-.46.337-.7-.215-.124-.41-.3-.51-.523-.097-.223-.04-.48.095-.674.174-.26.464-.421.747-.555.207-.104.43-.176.653-.243.3-.61.598-1.221.9-1.83a1.548 1.548 0 0 1-.535-.33c-.127-.124-.23-.293-.202-.471.018-.206.171-.37.342-.478a2.11 2.11 0 0 1 .622-.278c.195-.067.394-.116.596-.151.06-.116.12-.233.174-.35.236-.49.48-.976.713-1.466.202-.406.402-.813.596-1.222zm-1.516 4.375c.194.035.391.07.588.09.088.016.179.014.267.019.137.025.277.012.415.027.007-.002.02-.01.026-.012-.006-.922.005-1.844-.006-2.763a617.7 617.7 0 0 1-1.29 2.639zm1.871-2.654c-.005.93-.003 1.859-.003 2.785.146-.005.288-.005.433-.012.3-.03.602-.06.897-.122a.266.266 0 0 0-.023-.027c-.234-.483-.48-.961-.713-1.444-.2-.392-.386-.79-.591-1.18zm-2.859 2.28c.109.126.28.176.436.235.093-.193.186-.386.277-.58-.246.092-.516.164-.713.345zm4.453-.345c.088.186.184.37.28.553l.054-.022c.122-.055.265-.1.337-.216-.181-.17-.44-.233-.671-.315zm-5.401 4.686c.184.06.365.119.554.163.443.12.892.218 1.35.268.172.025.348.042.522.044.266.03.539.02.806.025 0-1.263.005-2.525.005-3.788a7.977 7.977 0 0 1-1.535-.179c-.57 1.155-1.135 2.312-1.702 3.467zm4.47-3.315c-.22.027-.443.032-.666.044v3.786c.301.005.602-.015.9-.027.078-.015.155-.018.233-.025a9.574 9.574 0 0 0 1.63-.325c.174-.044.345-.104.516-.163-.111-.25-.249-.493-.365-.743-.446-.897-.897-1.794-1.34-2.691-.301.057-.602.121-.907.144zm-4.981 2.475c-.096.074-.202.16-.218.285 0 .136.138.22.234.3.124-.276.27-.54.396-.816a2.444 2.444 0 0 0-.412.23zm7.724-.23c.122.255.246.507.378.758.067-.062.145-.122.176-.209.024-.081-.028-.158-.077-.22-.125-.144-.304-.238-.477-.33zm-.088 1.595c-.4.146-.817.245-1.234.327a9.18 9.18 0 0 1-2.084.193c0 2.166-.003 4.334.003 6.5.235-.023.471 0 .707-.033.088 0 .176-.002.265-.005.45-.037.904-.07 1.35-.144.66-.104 1.327-.213 1.962-.416a8.488 8.488 0 0 0 1.089-.396c.316-.161.635-.325.901-.558-.469-.946-.938-1.893-1.41-2.837l-1.334-2.686c-.078-.007-.145.038-.215.055zm-7.359-.042c-.915 1.856-1.82 3.716-2.734 5.575.135.104.277.2.43.282.417.24.871.424 1.332.567.384.11.768.226 1.161.298a16.3 16.3 0 0 0 2.502.31c.251.034.51.004.762.034.023-.082.013-.166.015-.25v-6.254a10.024 10.024 0 0 1-2.97-.406c-.169-.045-.33-.114-.498-.156zm9.932 3.498c.267.518.519 1.041.786 1.559.044-.08.077-.166.103-.25a1.18 1.18 0 0 0 .003-.318c-.013-.032-.02-.064-.034-.096a1.784 1.784 0 0 0-.858-.895zm-.531 3.172a8.713 8.713 0 0 1-.998.34c-.065.019-.132.036-.197.056-.453.122-.912.226-1.379.295a17.86 17.86 0 0 1-2.794.238c.003 1.59 0 3.179.003 4.77 2.496-1.472 4.987-2.951 7.48-4.423-.112-.278-.267-.533-.391-.805-.19-.372-.369-.749-.563-1.118-.352.27-.754.466-1.161.647zM9.27 19.973c-.298.617-.604 1.231-.902 1.85-.041.092-.103.179-.127.278 2.488 1.4 4.982 2.792 7.473 4.192.002-1.598 0-3.196 0-4.794-.949-.005-1.892-.1-2.828-.245a11.212 11.212 0 0 1-1.332-.29 9.023 9.023 0 0 1-1.268-.426c-.352-.162-.702-.335-1.016-.565z"/></svg>