<svg width="34" height="34" viewBox="0 0 34 34" xmlns="http://www.w3.org/2000/svg"><path d="M16.977 0C7.6 0 0 7.594 0 16.963s7.6 16.963 16.977 16.963c9.376 0 16.976-7.594 16.976-16.963S26.353 0 16.977 0z" fill="#F7F8FA"/><path d="M17 8.153c-5.574 0-11.5 1.832-11.5 5.228v8.363c0 3.396 5.926 5.228 11.5 5.228s11.5-1.832 11.5-5.228v-8.363c0-3.396-5.926-5.228-11.5-5.228zm9.41 13.591c0 1.278-3.666 3.137-9.41 3.137s-9.41-1.86-9.41-3.137v-1.089c2.22 1.399 5.883 2.135 9.41 2.135s7.19-.736 9.41-2.135v1.09zm0-4.181c0 1.277-3.666 3.136-9.41 3.136s-9.41-1.859-9.41-3.137v-1.089c2.22 1.399 5.883 2.135 9.41 2.135s7.19-.736 9.41-2.135v1.09zM17 16.517c-5.744 0-9.41-1.859-9.41-3.136 0-1.278 3.666-3.137 9.41-3.137s9.41 1.86 9.41 3.137-3.666 3.136-9.41 3.136z" fill="#C5CBCE"/></svg>