<svg width="34" height="34" viewBox="0 0 34 34" xmlns="http://www.w3.org/2000/svg"><path fill="#DE6818" d="M16.982 33.92C7.597 33.92-.003 26.32 0 16.94.002 7.577 7.618-.003 17.02 0c9.363.004 16.982 7.608 16.965 16.961-.016 9.257-7.466 16.95-17.003 16.958zm-6.927-9.203c.05-.093.083-.16.12-.224l4.57-8.02c1.332-2.342 2.663-4.685 3.991-7.03.056-.099.114-.136.231-.136 1.553.005 3.106.003 4.659.003h.223l-6.447 11.353c.08.003.12.007.16.007 3.888 0 7.776 0 11.664.004.129 0 .172-.05.203-.16.584-2.108.649-4.23.162-6.365-.58-2.543-1.855-4.692-3.733-6.487a11.865 11.865 0 0 0-2.84-2c-2.587-1.317-5.312-1.738-8.164-1.235-2.843.502-5.24 1.847-7.2 3.965-.257.278-.493.576-.739.864l.025.048h11.094c-.062.114-.104.197-.15.277-.677 1.195-1.358 2.388-2.028 3.587-.078.138-.16.18-.313.18-3.494-.004-6.988-.003-10.482-.003h-.207c-1.771 5.556.733 12.52 7.004 15.314 6.077 2.707 12.447.216 15.43-3.942H10.054zm19.532 2.924c2.153-2.387 4.068-6.32 3.95-11.044-.097-3.888-1.429-7.308-3.927-10.33l-2.292 2.307c3.954 4.746 4.124 11.771.043 16.81.741.753 1.483 1.505 2.226 2.257z"/></svg>