<svg width="34" height="34" viewBox="0 0 34 34" xmlns="http://www.w3.org/2000/svg"><path fill="#ED1C24" d="M17 0C7.624 0 .015 7.609.015 16.985S7.624 33.97 17 33.97s16.985-7.609 16.985-16.985S26.376 0 17 0zm2.711 8.478c-.18.27-.33.554-.45.853-.194-.105-.359-.194-.479-.24a.222.222 0 0 0-.194 0c-.06.03-.12.076-.135.15l-.225.615c-.045.12 0 .24.105.3.45.269 1.648 1.018 2.771 2.156 1.123 1.123 1.902 2.396 2.202 2.906.03.06.09.104.164.12h.06a.289.289 0 0 0 .15-.045l.6-.42a.243.243 0 0 0 .09-.3 2.27 2.27 0 0 0-.166-.344c.315-.09.6-.21.884-.36.06.18.12.375.18.555l-6.246 5.512-1.303-11.953c.704.09 1.363.255 1.992.495zM18.693 20.22l-4.045 3.58-4.074-8.537L17.9 12.94l.794 7.28zM16.566 7.908c.27 0 .539.015.793.03l.51 4.643-7.444 2.367-1.423-2.966a9.041 9.041 0 0 1 7.564-4.074zm-7.789 4.434l1.303 2.726-2.501.794a8.777 8.777 0 0 1 1.198-3.52zM7.504 16.97c0-.24.015-.494.03-.734l2.696-.854 4.149 8.673-1.408 1.243a9.067 9.067 0 0 1-5.467-8.328zm5.841 8.478l1.199-1.064.749 1.558a10.302 10.302 0 0 1-1.948-.494zm3.22.584a8.15 8.15 0 0 1-.853-.045l-.884-1.857 3.924-3.475.54 4.957c-.87.27-1.783.42-2.726.42zm3.056-.54l-.554-5.122 6.29-5.572c.165.69.27 1.423.27 2.172 0 3.924-2.501 7.264-6.006 8.523zm3.475-11.712h-.09c-.36-.524-.869-1.213-1.483-1.828a12.698 12.698 0 0 0-1.842-1.512c.06-1.723 1.573-3.116 3.415-3.116 1.887 0 3.415 1.453 3.415 3.235 0 1.768-1.528 3.22-3.415 3.22z"/></svg>