<svg width="34" height="34" viewBox="0 0 34 34" xmlns="http://www.w3.org/2000/svg"><path d="M17 0C7.611 0 0 7.61 0 17s7.611 17 17 17c9.39 0 17-7.61 17-17S26.39 0 17 0z" fill="#4F7BA2"/><g fill="#FFF"><path d="M11 13h2v2h-2zM8 13h2v2H8zM11 16h2v2h-2zM8 16h2v2H8zM11 19h2v2h-2zM5 13h2v2H5zM14 13h3.081c.695 0 1.225.05 1.59.153.49.138.909.384 1.258.736.35.353.615.785.798 1.297.182.51.273 1.141.273 1.89 0 .659-.085 1.226-.256 1.703-.21.582-.507 1.053-.895 1.413-.292.273-.687.486-1.184.639-.372.113-.87.169-1.493.169H14v-8zm1.615 1.353v5.3h1.206c.451 0 .777-.026.977-.077a1.49 1.49 0 0 0 .652-.333c.173-.157.314-.414.423-.772.11-.359.164-.847.164-1.466 0-.618-.055-1.093-.164-1.424-.109-.33-.262-.59-.458-.775a1.537 1.537 0 0 0-.748-.376c-.225-.051-.667-.077-1.326-.077h-.726zM22 21v-8h1.206l4.667 6.281V13H29v8h-1.206l-4.667-6.286V21H22z"/></g></svg>